<svg width="90" height="90" viewBox="0 0 90 90" fill="none" xmlns="http://www.w3.org/2000/svg">
<path d="M29.1177 49.4118C28.2451 49.4118 27.3921 49.153 26.6666 48.6682C25.9411 48.1835 25.3756 47.4944 25.0417 46.6883C24.7078 45.8821 24.6204 44.9951 24.7907 44.1393C24.9609 43.2835 25.3811 42.4974 25.9981 41.8804C26.6151 41.2634 27.4012 40.8432 28.257 40.673C29.1128 40.5028 29.9998 40.5901 30.806 40.924C31.6121 41.258 32.3011 41.8234 32.7859 42.5489C33.2707 43.2745 33.5294 44.1274 33.5294 45C33.5294 46.1701 33.0646 47.2922 32.2373 48.1196C31.4099 48.9469 30.2877 49.4118 29.1177 49.4118ZM60.8824 40.5882C60.0098 40.5882 59.1568 40.847 58.4313 41.3317C57.7058 41.8165 57.1403 42.5055 56.8064 43.3117C56.4725 44.1178 56.3851 45.0049 56.5554 45.8607C56.7256 46.7165 57.1458 47.5026 57.7628 48.1196C58.3798 48.7366 59.1659 49.1567 60.0217 49.327C60.8775 49.4972 61.7645 49.4098 62.5707 49.0759C63.3768 48.742 64.0658 48.1765 64.5506 47.451C65.0354 46.7255 65.2941 45.8726 65.2941 45C65.2941 43.8299 64.8293 42.7078 64.002 41.8804C63.1746 41.053 62.0524 40.5882 60.8824 40.5882ZM55.9412 60.4059C52.6565 62.4462 48.8668 63.5274 45 63.5274C41.1332 63.5274 37.3435 62.4462 34.0588 60.4059C33.4644 60.0314 32.7456 59.9085 32.0606 60.064C31.3755 60.2196 30.7803 60.6409 30.4059 61.2353C30.0315 61.8297 29.9085 62.5485 30.0641 63.2335C30.2196 63.9186 30.6409 64.5138 31.2353 64.8882C35.3653 67.4615 40.1339 68.8255 45 68.8255C49.8661 68.8255 54.6347 67.4615 58.7647 64.8882C59.059 64.7028 59.3139 64.4613 59.5149 64.1774C59.7159 63.8934 59.859 63.5727 59.936 63.2335C60.013 62.8943 60.0224 62.5433 59.9638 62.2004C59.9051 61.8575 59.7795 61.5296 59.5941 61.2353C59.4087 60.941 59.1672 60.686 58.8833 60.4851C58.5994 60.2841 58.2786 60.141 57.9394 60.064C57.6002 59.987 57.2492 59.9776 56.9063 60.0362C56.5634 60.0949 56.2355 60.2205 55.9412 60.4059ZM90 45C90 53.9001 87.3608 62.6004 82.4161 70.0006C77.4715 77.4009 70.4434 83.1686 62.2208 86.5746C53.9981 89.9805 44.9501 90.8717 36.2209 89.1353C27.4918 87.399 19.4736 83.1132 13.1802 76.8198C6.88685 70.5264 2.60102 62.5082 0.864683 53.7791C-0.871652 45.0499 0.0194969 36.0019 3.42544 27.7792C6.83138 19.5566 12.5991 12.5285 19.9994 7.58386C27.3996 2.6392 36.0999 0 45 0C56.9305 0.0140111 68.3682 4.75957 76.8043 13.1957C85.2404 21.6318 89.986 33.0695 90 45ZM84.7059 45C84.6935 34.697 80.6815 24.8012 73.5157 17.3983C66.3498 9.99547 56.5898 5.66375 46.2927 5.31617C40.7206 12.8956 40.5882 20.2279 40.5882 20.2941C40.5882 21.4642 41.0531 22.5863 41.8804 23.4137C42.7078 24.2411 43.8299 24.7059 45 24.7059C46.1701 24.7059 47.2922 24.2411 48.1196 23.4137C48.947 22.5863 49.4118 21.4642 49.4118 20.2941C49.4118 19.5921 49.6907 18.9188 50.1871 18.4224C50.6835 17.9259 51.3568 17.6471 52.0588 17.6471C52.7609 17.6471 53.4342 17.9259 53.9306 18.4224C54.427 18.9188 54.7059 19.5921 54.7059 20.2941C54.7059 22.8683 53.6833 25.337 51.8631 27.1572C50.0429 28.9774 47.5742 30 45 30C42.4259 30 39.9571 28.9774 38.1369 27.1572C36.3167 25.337 35.2941 22.8683 35.2941 20.2941C35.2941 19.9632 35.3603 13.3147 39.7677 5.63823C32.2045 6.64365 25.0912 9.80681 19.2788 14.7493C13.4664 19.6917 9.20108 26.2041 6.99312 33.5073C4.78516 40.8105 4.72809 48.5952 6.82875 55.93C8.92941 63.2648 13.0988 69.839 18.8382 74.8661C24.5775 79.8932 31.6436 83.1603 39.1912 84.2765C46.7388 85.3927 54.4481 84.3107 61.3969 81.16C68.3456 78.0092 74.2394 72.9232 78.3731 66.5104C82.5069 60.0976 84.7055 52.6297 84.7059 45Z" fill="white"/>
</svg>
