<svg width="90" height="90" viewBox="0 0 90 90" fill="none" xmlns="http://www.w3.org/2000/svg">
<path d="M45 41.0232L51.0917 34.9315C48.6224 31.8041 46.6762 27.9229 45.1181 23.8843C43.1775 18.8388 41.777 13.3264 40.7645 8.26407C40.6077 7.4779 40.4577 6.69039 40.3145 5.90163C32.5058 6.82701 25.1562 10.0804 19.2213 15.2389L45 41.0232ZM55.0685 38.9083L48.9768 45L74.7611 70.7843C79.9193 64.8493 83.1727 57.4997 84.0984 49.6911C83.3134 49.5496 82.5296 49.4015 81.7472 49.2468C76.6848 48.2343 71.1724 46.8281 66.127 44.8875C62.0827 43.335 58.1959 41.3832 55.0685 38.9083ZM84.3627 44.0269C84.1482 34.8926 80.7524 26.1195 74.7611 19.2213L59.079 34.8978C61.4977 36.6977 64.6082 38.2783 68.1463 39.6395C72.7924 41.4282 77.9729 42.7557 82.8496 43.7344L84.3627 44.0269ZM55.1022 30.921L70.7843 15.2389C63.8861 9.24757 55.113 5.85175 45.9787 5.63726L46.2768 7.15597C47.2556 12.0383 48.583 17.2188 50.3717 21.865C51.7273 25.3974 53.3023 28.5023 55.1022 30.921ZM45 48.9711L38.9195 55.0516C41.3945 58.179 43.3407 62.0658 44.8988 66.1101C46.8393 71.1556 48.2455 76.6679 49.258 81.7303C49.4155 82.529 49.5674 83.3165 49.708 84.0927C57.5108 83.1641 64.8541 79.9109 70.7843 74.7555L45 48.9711ZM34.909 59.0621L19.2157 74.7555C26.1169 80.7492 34.8943 84.1452 44.0325 84.3571C43.9425 83.8509 43.8413 83.3446 43.74 82.8328C42.7613 77.9504 41.4338 72.7755 39.6451 68.1294C38.2895 64.5914 36.709 61.4865 34.909 59.0678M30.9266 55.0966C28.5079 53.2967 25.403 51.7217 21.8706 50.3605C17.2245 48.5718 12.044 47.2387 7.16722 46.2656C6.65782 46.1633 6.14783 46.0639 5.63727 45.9675C5.84914 55.1057 9.24513 63.8831 15.2389 70.7843L30.9266 55.0966ZM34.9371 51.0805L41.0232 45L15.2389 19.2157C10.0825 25.1475 6.82919 32.4929 5.90163 40.2976C6.68349 40.4382 7.47097 40.5901 8.2697 40.7476C13.3321 41.7601 18.8444 43.1663 23.8899 45.1069C27.9286 46.6593 31.8153 48.6112 34.9371 51.0805ZM76.8198 76.8198C72.6412 80.9984 67.6804 84.3131 62.2208 86.5746C56.7611 88.836 50.9095 90 45 90C39.0905 90 33.2389 88.836 27.7792 86.5746C22.3196 84.3131 17.3588 80.9984 13.1802 76.8198C9.00156 72.6412 5.68688 67.6804 3.42542 62.2208C1.16396 56.7611 -4.40291e-08 50.9095 0 45C4.40291e-08 39.0905 1.16396 33.2389 3.42542 27.7792C5.68688 22.3196 9.00156 17.3588 13.1802 13.1802C21.6193 4.74106 33.0653 -8.89208e-08 45 0C56.9347 8.89207e-08 68.3807 4.74106 76.8198 13.1802C85.2589 21.6193 90 33.0653 90 45C90 56.9347 85.2589 68.3807 76.8198 76.8198Z" fill="white"/>
</svg>
