<svg width="90" height="90" viewBox="0 0 90 90" fill="none" xmlns="http://www.w3.org/2000/svg">
<path d="M29.6823 3.67268H6.70245C4.92485 3.67268 3.22006 4.34998 1.9631 5.55558C0.706149 6.76119 0 8.39633 0 10.1013V83.5714C0 85.2764 0.706149 86.9115 1.9631 88.1171C3.22006 89.3227 4.92485 90 6.70245 90H29.6823C30.5625 90 31.434 89.8337 32.2472 89.5107C33.0604 89.1876 33.7992 88.7141 34.4216 88.1171C35.044 87.5201 35.5377 86.8115 35.8745 86.0315C36.2114 85.2515 36.3847 84.4156 36.3847 83.5714V10.1013C36.3847 9.25709 36.2114 8.42114 35.8745 7.64118C35.5377 6.86122 35.044 6.15254 34.4216 5.55558C33.7992 4.95863 33.0604 4.4851 32.2472 4.16203C31.434 3.83896 30.5625 3.67268 29.6823 3.67268ZM5.74496 23.8769H30.6398V69.7957H5.74496V23.8769ZM6.70245 9.18294H29.6823C29.9362 9.18294 30.1798 9.27969 30.3593 9.45192C30.5389 9.62415 30.6398 9.85774 30.6398 10.1013V18.3667H5.74496V10.1013C5.74496 9.85774 5.84584 9.62415 6.0254 9.45192C6.20496 9.27969 6.44851 9.18294 6.70245 9.18294ZM29.6823 84.4897H6.70245C6.44851 84.4897 6.20496 84.393 6.0254 84.2208C5.84584 84.0485 5.74496 83.8149 5.74496 83.5714V75.306H30.6398V83.5714C30.6398 83.8149 30.5389 84.0485 30.3593 84.2208C30.1798 84.393 29.9362 84.4897 29.6823 84.4897ZM89.8607 77.6019L73.9711 5.12371C73.7918 4.29399 73.4432 3.50646 72.9454 2.80641C72.4476 2.10636 71.8105 1.5076 71.0706 1.04459C70.3307 0.581567 69.5026 0.263419 68.6341 0.108438C67.7655 -0.0465426 66.8736 -0.035298 66.0096 0.141526L43.5994 4.76096C41.8651 5.12661 40.351 6.13347 39.3857 7.56308C38.4204 8.99268 38.0818 10.7297 38.4433 12.3973L54.3329 84.8617C54.5137 85.6943 54.8649 86.4842 55.3661 87.1858C55.8674 87.8873 56.5089 88.4864 57.2533 88.9485C58.3307 89.6245 59.5899 89.9851 60.8774 89.9862C61.3604 89.9887 61.8421 89.9394 62.3136 89.8393L84.7238 85.2244C86.4516 84.8546 87.9585 83.8481 88.9195 82.4221C89.8805 80.9961 90.2186 79.2649 89.8607 77.6019ZM50.2157 39.3424L74.5025 34.3372L81.2624 65.1763L56.9708 70.1677L50.2157 39.3424ZM47.0416 24.8504L71.3332 19.8315L73.32 28.928L49.0332 33.9332L47.0416 24.8504ZM44.8107 10.1564L67.216 5.54158C67.2829 5.53537 67.3502 5.53537 67.4171 5.54158C67.5961 5.54178 67.771 5.59292 67.9198 5.68852C68.0297 5.75568 68.1243 5.84367 68.1975 5.94711C68.2708 6.05055 68.3213 6.16724 68.3458 6.29005L70.1411 14.4728L45.8591 19.4412L44.0686 11.2768C44.0127 11.0328 44.0592 10.7774 44.1981 10.566C44.3369 10.3546 44.557 10.2042 44.8107 10.1472V10.1564ZM83.4982 79.8611L61.0881 84.4897C60.9681 84.5153 60.844 84.5174 60.7231 84.4961C60.6022 84.4748 60.487 84.4305 60.3843 84.3658C60.2743 84.2986 60.1798 84.2106 60.1065 84.1072C60.0333 84.0037 59.9828 83.887 59.9582 83.7642L58.1629 75.5815L82.4449 70.5764L84.2594 78.7178C84.2875 78.8402 84.2901 78.9668 84.267 79.0902C84.2439 79.2136 84.1956 79.3314 84.1249 79.4368C84.0541 79.5422 83.9623 79.6332 83.8548 79.7044C83.7472 79.7757 83.626 79.8258 83.4982 79.8519V79.8611Z" fill="white"/>
</svg>
