<svg width="140" height="120" viewBox="0 0 140 120" fill="none" xmlns="http://www.w3.org/2000/svg">
<path fill-rule="evenodd" clip-rule="evenodd" d="M89.1667 38.9706C89.1667 35.9284 87.9551 33.0108 85.7984 30.8597C83.6417 28.7085 80.7167 27.5 77.6667 27.5H62.3333C59.2833 27.5 56.3583 28.7085 54.2016 30.8597C52.0449 33.0108 50.8333 35.9284 50.8333 38.9706H47C43.95 38.9706 41.0249 40.1791 38.8683 42.3302C36.7116 44.4814 35.5 47.399 35.5 50.4412V81.0294C35.5 84.0716 36.7116 86.9892 38.8683 89.1403C41.0249 91.2915 43.95 92.5 47 92.5H93C96.05 92.5 98.9751 91.2915 101.132 89.1403C103.288 86.9892 104.5 84.0716 104.5 81.0294V50.4412C104.5 47.399 103.288 44.4814 101.132 42.3302C98.9751 40.1791 96.05 38.9706 93 38.9706H89.1667ZM77.6667 35.1471H62.3333C61.3167 35.1471 60.3416 35.5499 59.6228 36.2669C58.9039 36.984 58.5 37.9565 58.5 38.9706H81.5C81.5 37.9565 81.0961 36.984 80.3772 36.2669C79.6583 35.5499 78.6833 35.1471 77.6667 35.1471ZM47 46.6176H93C94.0167 46.6176 94.9917 47.0205 95.7106 47.7375C96.4295 48.4546 96.8333 49.4271 96.8333 50.4412V81.0294C96.8333 82.0435 96.4295 83.016 95.7106 83.7331C94.9917 84.4501 94.0167 84.8529 93 84.8529H47C45.9833 84.8529 45.0083 84.4501 44.2894 83.7331C43.5705 83.016 43.1667 82.0435 43.1667 81.0294V50.4412C43.1667 49.4271 43.5705 48.4546 44.2894 47.7375C45.0083 47.0205 45.9833 46.6176 47 46.6176Z" fill="#1B68DC"/>
</svg>
