<svg width="140" height="120" viewBox="0 0 140 120" fill="none" xmlns="http://www.w3.org/2000/svg">
<path d="M93.0313 73.9583C94.5121 73.9583 95.9323 73.3701 96.9793 72.323C98.0264 71.2759 98.6147 69.8558 98.6147 68.375V37.6666C98.6147 36.1859 98.0264 34.7657 96.9793 33.7186C95.9323 32.6716 94.5121 32.0833 93.0313 32.0833H63.6072C64.5842 33.7862 65.1147 35.7125 65.1147 37.6666H93.0313V68.375H67.9063V73.9583M79.073 46.0416V51.625H62.323V87.9166H56.7397V71.1666H51.1563V87.9166H45.573V65.5833H41.3855V51.625C41.3855 50.1442 41.9737 48.724 43.0208 47.677C44.0679 46.6299 45.488 46.0416 46.9688 46.0416H79.073ZM59.5313 37.6666C59.5313 39.1474 58.9431 40.5676 57.896 41.6147C56.8489 42.6617 55.4288 43.25 53.948 43.25C52.4672 43.25 51.0471 42.6617 50 41.6147C48.9529 40.5676 48.3647 39.1474 48.3647 37.6666C48.3647 36.1859 48.9529 34.7657 50 33.7186C51.0471 32.6716 52.4672 32.0833 53.948 32.0833C55.4288 32.0833 56.8489 32.6716 57.896 33.7186C58.9431 34.7657 59.5313 36.1859 59.5313 37.6666Z" fill="#1B68DC"/>
</svg>
