<svg width="90" height="90" viewBox="0 0 90 90" fill="none" xmlns="http://www.w3.org/2000/svg">
<path d="M45 0C20.1465 0 0 20.1465 0 45C0 69.8535 20.1465 90 45 90C69.8535 90 90 69.8535 90 45C90 20.1465 69.8535 0 45 0ZM36.333 7.74C42.0353 6.41768 47.9647 6.41768 53.667 7.74L45.009 12.9285L36.333 7.74ZM28.098 10.6785L41.634 18.7785V28.647L29.0745 37.773L19.8765 34.5915L17.235 18.6885C20.3542 15.3976 24.0321 12.6856 28.098 10.6785ZM11.655 26.2575L13.266 35.964L6.84 42.39C7.21928 36.7202 8.86461 31.2076 11.655 26.2575ZM7.299 51.4755L17.7705 41.004L26.9505 44.1765L31.815 59.175L27.45 66.2625L12.6315 65.3895C9.95196 61.149 8.14262 56.4202 7.299 51.4755ZM18.4095 72.4905L26.9775 72.9945L30.015 80.2035C25.7058 78.3644 21.7751 75.7501 18.4095 72.4905ZM38.3805 82.6785L33.0525 70.038L37.386 62.9865H52.56L56.664 70.101L51.984 82.611C47.4895 83.4409 42.883 83.4638 38.3805 82.6785ZM60.1155 80.145L62.667 73.3185L70.182 73.791C67.1772 76.4216 63.7791 78.5656 60.111 80.145M76.005 67.392L62.397 66.537L58.176 59.229L63.0675 44.1765L72.126 41.0445L82.53 52.3845C81.4687 57.8009 79.2423 62.9217 76.005 67.392ZM83.196 43.1325L76.716 36.0675L78.345 26.2665C81.255 31.4333 82.9162 37.2092 83.196 43.1325ZM72.765 18.6975L70.1145 34.6005L60.9345 37.773L48.375 28.647V18.774L61.884 10.674C65.9576 12.6849 69.6418 15.3986 72.765 18.6975ZM33.5925 42.831L45 34.542L56.4075 42.831L52.0515 56.241H37.9485L33.5925 42.831Z" fill="white"/>
</svg>
