<svg width="140" height="120" viewBox="0 0 140 120" fill="none" xmlns="http://www.w3.org/2000/svg">
<path d="M34.5 40.96C34.5 40.96 34.5 32 43.375 32H96.625C96.625 32 105.5 32 105.5 40.96V67.84C105.5 67.84 105.5 76.8 96.625 76.8H78.875C78.875 79.7867 79.2448 82.0267 79.9844 83.52H83.3125C83.9009 83.52 84.4653 83.756 84.8814 84.1761C85.2975 84.5962 85.5312 85.1659 85.5312 85.76C85.5312 86.3541 85.2975 86.9238 84.8814 87.3439C84.4653 87.764 83.9009 88 83.3125 88H56.6875C56.0991 88 55.5347 87.764 55.1186 87.3439C54.7025 86.9238 54.4688 86.3541 54.4688 85.76C54.4688 85.1659 54.7025 84.5962 55.1186 84.1761C55.5347 83.756 56.0991 83.52 56.6875 83.52H60.0156C60.7552 82.0267 61.125 79.7867 61.125 76.8H43.375C43.375 76.8 34.5 76.8 34.5 67.84V40.96ZM40.7036 37.1296C40.2165 37.4725 39.8277 37.9392 39.5765 38.4826C39.2027 39.2732 38.9856 40.13 38.9375 41.0048V67.84C38.9375 69.296 39.2836 70.089 39.5809 70.537C39.8916 71.0029 40.3383 71.3822 40.9211 71.6749C41.6703 72.0369 42.48 72.2542 43.3084 72.3155L43.4194 72.32H96.625C98.0672 72.32 98.8526 71.9706 99.2964 71.6704C99.7835 71.3275 100.172 70.8608 100.424 70.3174C100.782 69.561 100.997 68.7435 101.058 67.9072L101.062 67.7952V40.96C101.062 39.504 100.716 38.711 100.419 38.263C100.079 37.7712 99.6171 37.3787 99.0789 37.1251C98.2958 36.7477 97.4471 36.5286 96.5806 36.48H43.375C41.9328 36.48 41.1474 36.8294 40.7036 37.1296Z" fill="#1B68DC"/>
</svg>
