<svg width="12" height="6" viewBox="0 0 12 6" fill="none" xmlns="http://www.w3.org/2000/svg">
<path d="M11.0691 0.157477L6.38407 4.76848C6.28185 4.86961 6.14386 4.92633 6.00007 4.92633C5.85628 4.92633 5.71829 4.86961 5.61607 4.76848L0.931071 0.158478C0.828216 0.0574022 0.689778 0.00076592 0.545571 0.00076592C0.401364 0.00076592 0.262927 0.0574022 0.160072 0.158478C0.109423 0.207855 0.0691712 0.266871 0.0416872 0.332048C0.0142033 0.397224 4.41075e-05 0.467244 4.41075e-05 0.537978C4.41075e-05 0.608713 0.0142033 0.678731 0.0416872 0.743908C0.0691712 0.809085 0.109423 0.868101 0.160072 0.917478L4.84407 5.52748C5.15259 5.8304 5.56769 6.00012 6.00007 6.00012C6.43245 6.00012 6.84755 5.8304 7.15607 5.52748L11.8401 0.917478C11.8909 0.868085 11.9313 0.809008 11.9588 0.743738C11.9864 0.678469 12.0006 0.608333 12.0006 0.537478C12.0006 0.466622 11.9864 0.396487 11.9588 0.331218C11.9313 0.265948 11.8909 0.20687 11.8401 0.157477C11.7372 0.0564018 11.5988 -0.000234485 11.4546 -0.000234485C11.3104 -0.000234485 11.1719 0.0564018 11.0691 0.157477Z" fill="white"/>
</svg>
