<svg width="90" height="60" viewBox="0 0 90 60" fill="none" xmlns="http://www.w3.org/2000/svg">
<path d="M0 60V56H90V60H0ZM12.5147 52C10.4912 52 8.80205 51.3827 7.44721 50.148C6.08944 48.916 5.41056 47.3787 5.41056 45.536V6.456C5.41056 4.616 6.08944 3.08 7.44721 1.848C8.80499 0.616 10.4941 0 12.5147 0H77.4853C79.5088 0 81.198 0.616 82.5528 1.848C83.9106 3.08267 84.5894 4.62 84.5894 6.46V45.54C84.5894 47.38 83.912 48.916 82.5572 50.148C81.2023 51.38 79.5117 51.9973 77.4853 52H12.5147ZM12.5147 48H77.4853C78.1598 48 78.7801 47.7427 79.346 47.228C79.9091 46.716 80.1906 46.152 80.1906 45.536V6.456C80.1906 5.84267 79.9091 5.28 79.346 4.768C78.7801 4.256 78.1598 4 77.4853 4H12.5147C11.8402 4 11.2199 4.256 10.654 4.768C10.0909 5.28 9.80938 5.844 9.80938 6.46V45.54C9.80938 46.1533 10.0909 46.716 10.654 47.228C11.2199 47.7427 11.8402 48 12.5147 48Z" fill="white"/>
</svg>
