<svg width="90" height="76" viewBox="0 0 90 76" fill="none" xmlns="http://www.w3.org/2000/svg">
<g clip-path="url(#clip0_53_124)">
<path d="M58.1057 47.5L49.9657 55.5938L54.4286 60L67 47.5L54.4286 35L49.9657 39.4062L58.1057 47.5ZM31.8943 47.5L40.0343 39.4062L35.5714 35L23 47.5L35.5714 60L40.0343 55.5938L31.8943 47.5Z" fill="white"/>
<path d="M22.5 15C24.433 15 26 13.6569 26 12C26 10.3431 24.433 9 22.5 9C20.567 9 19 10.3431 19 12C19 13.6569 20.567 15 22.5 15Z" fill="white"/>
<path d="M13 15C14.6569 15 16 13.6569 16 12C16 10.3431 14.6569 9 13 9C11.3431 9 10 10.3431 10 12C10 13.6569 11.3431 15 13 15Z" fill="white"/>
<path d="M83.5714 0H6.42857C2.88321 0 0 2.84367 0 6.33333V69.6667C0 73.1595 2.88321 76 6.42857 76H83.5714C87.1168 76 90 73.1595 90 69.6667V6.33333C90 2.84367 87.1168 0 83.5714 0ZM83.5714 6.33333V19H6.42857V6.33333H83.5714ZM6.42857 69.6667V25.3333H83.5714V69.6667H6.42857Z" fill="white"/>
</g>
<defs>
<clipPath id="clip0_53_124">
<rect width="90" height="76" fill="white"/>
</clipPath>
</defs>
</svg>
