<svg width="90" height="80" viewBox="0 0 90 80" fill="none" xmlns="http://www.w3.org/2000/svg">
<path d="M81.2195 60C83.5482 60 85.7816 59.1571 87.4283 57.6569C89.0749 56.1566 90 54.1217 90 52V8C90 5.87827 89.0749 3.84344 87.4283 2.34315C85.7816 0.842854 83.5482 0 81.2195 0H34.9463C36.4829 2.44 37.3171 5.2 37.3171 8H81.2195V52H41.7073V60M59.2683 20V28H32.9268V80H24.1463V56H15.3659V80H6.58537V48H0V28C0 25.8783 0.925084 23.8434 2.57174 22.3431C4.21841 20.8429 6.45176 20 8.78049 20H59.2683ZM28.5366 8C28.5366 10.1217 27.6115 12.1566 25.9648 13.6569C24.3182 15.1571 22.0848 16 19.7561 16C17.4274 16 15.194 15.1571 13.5474 13.6569C11.9007 12.1566 10.9756 10.1217 10.9756 8C10.9756 5.87827 11.9007 3.84344 13.5474 2.34315C15.194 0.842854 17.4274 0 19.7561 0C22.0848 0 24.3182 0.842854 25.9648 2.34315C27.6115 3.84344 28.5366 5.87827 28.5366 8Z" fill="white"/>
</svg>
