<svg width="140" height="120" viewBox="0 0 140 120" fill="none" xmlns="http://www.w3.org/2000/svg">
<path d="M103.132 37.5284L70.3633 27.1334C69.8027 26.9555 69.1967 26.9555 68.6361 27.1334L35.8671 37.5284C35.3234 37.7009 34.8505 38.0318 34.5154 38.4743C34.1803 38.9168 34 39.4485 34 39.9939V65.9814C34 66.6706 34.2877 67.3316 34.7998 67.819C35.3119 68.3063 36.0065 68.5801 36.7307 68.5801C37.455 68.5801 38.1496 68.3063 38.6617 67.819C39.1738 67.3316 39.4615 66.6706 39.4615 65.9814V43.5997L50.9272 47.2347C47.8809 51.9183 46.9122 57.5609 48.2338 62.9237C49.5554 68.2864 53.0592 72.9308 57.9759 75.8371C51.8318 78.1305 46.5205 82.2788 42.636 87.9505C42.434 88.2363 42.2936 88.5574 42.2232 88.8952C42.1527 89.233 42.1535 89.5808 42.2255 89.9183C42.2975 90.2558 42.4393 90.5763 42.6426 90.8613C42.8459 91.1462 43.1067 91.3898 43.4098 91.5779C43.7129 91.7661 44.0523 91.895 44.4083 91.9572C44.7642 92.0195 45.1296 92.0137 45.4832 91.9404C45.8368 91.867 46.1715 91.7275 46.468 91.53C46.7644 91.3325 47.0166 91.0808 47.21 90.7897C52.354 83.2793 60.478 78.9751 69.4997 78.9751C78.5214 78.9751 86.6454 83.2793 91.7894 90.7897C92.1899 91.3562 92.8086 91.7499 93.5118 91.8858C94.2149 92.0216 94.9459 91.8887 95.5469 91.5156C96.1478 91.1426 96.5704 90.5595 96.7232 89.8924C96.876 89.2253 96.7467 88.5277 96.3634 87.9505C92.4789 82.2788 87.1471 78.1305 81.0234 75.8371C85.9355 72.9309 89.436 68.2895 90.7573 62.9307C92.0787 57.5719 91.1131 51.9332 88.0722 47.2509L103.132 42.4757C103.676 42.3033 104.149 41.9724 104.484 41.5299C104.82 41.0874 105 40.5557 105 40.0102C105 39.4646 104.82 38.9329 104.484 38.4904C104.149 38.0479 103.676 37.717 103.132 37.5446V37.5284ZM85.8842 58.1852C85.8849 60.6502 85.2715 63.0804 84.0942 65.2762C82.917 67.472 81.2094 69.3708 79.1117 70.817C77.014 72.2631 74.5858 73.2154 72.0265 73.5955C69.4672 73.9757 66.8496 73.773 64.3886 73.004C61.9275 72.235 59.6931 70.9217 57.8687 69.1718C56.0443 67.4218 54.6819 65.2852 53.8932 62.9372C53.1045 60.5891 52.912 58.0966 53.3316 55.664C53.7511 53.2315 54.7708 50.9283 56.3068 48.9434L68.6361 52.8415C69.1967 53.0193 69.8027 53.0193 70.3633 52.8415L82.6926 48.9434C84.7672 51.6201 85.8858 54.8591 85.8842 58.1852ZM69.4997 47.6505L45.3667 39.9939L69.4997 32.3374L93.6327 39.9939L69.4997 47.6505Z" fill="#1B68DC"/>
</svg>
