<svg width="90" height="96" viewBox="0 0 90 96" fill="none" xmlns="http://www.w3.org/2000/svg">
<path fill-rule="evenodd" clip-rule="evenodd" d="M40.1262 0H49.8738C58.3569 0 65.0769 0 70.3338 0.683163C75.7431 1.38865 80.1231 2.87107 83.58 6.21098C87.0323 9.55535 88.5646 13.7927 89.2938 19.0259C90 24.1161 90 30.6128 90 38.8197V57.1803C90 65.3872 90 71.8884 89.2938 76.9741C88.5646 82.2073 87.0323 86.4446 83.58 89.789C80.1231 93.1289 75.7431 94.6114 70.3338 95.3168C65.0723 96 58.3569 96 49.8738 96H40.1262C31.6431 96 24.9231 96 19.6662 95.3168C14.2569 94.6114 9.87692 93.1289 6.42 89.789C2.96769 86.4446 1.43539 82.2073 0.706154 76.9741C5.50197e-07 71.8839 0 65.3872 0 57.1803V38.8197C0 30.6128 5.50197e-07 24.1116 0.706154 19.0259C1.43539 13.7927 2.96769 9.55535 6.42 6.21098C9.87692 2.87107 14.2569 1.38865 19.6662 0.683163C24.9277 0 31.6431 0 40.1262 0ZM20.5846 7.32279C15.9415 7.92558 13.2646 9.05972 11.3077 10.9485C9.36 12.8372 8.18769 15.427 7.56462 19.9189C6.92769 24.509 6.91846 30.5548 6.91846 39.0698V56.9302C6.91846 65.4452 6.92769 71.4955 7.56462 76.0856C8.18769 80.573 9.36 83.1628 11.3123 85.0515C13.2646 86.9403 15.9415 88.0744 20.5846 88.6772C25.3292 89.2934 31.5785 89.3023 40.38 89.3023H49.6108C58.4123 89.3023 64.6662 89.2934 69.4108 88.6772C74.0492 88.0744 76.7262 86.9403 78.6785 85.0515C80.6308 83.1628 81.8031 80.573 82.4261 76.0811C83.0631 71.4954 83.0723 65.4452 83.0723 56.9302V39.0698C83.0723 30.5548 83.0631 24.509 82.4261 19.9144C81.8031 15.427 80.6308 12.8372 78.6785 10.9485C76.7262 9.05972 74.0492 7.92558 69.4062 7.32279C64.6662 6.70661 58.4123 6.69767 49.6108 6.69767H40.38C31.5785 6.69767 25.3338 6.70661 20.5846 7.32279ZM23.0769 39.0698C23.0769 38.1816 23.4416 37.3298 24.0908 36.7018C24.7399 36.0738 25.6204 35.7209 26.5385 35.7209H63.4615C64.3796 35.7209 65.2601 36.0738 65.9092 36.7018C66.5584 37.3298 66.9231 38.1816 66.9231 39.0698C66.9231 39.9579 66.5584 40.8097 65.9092 41.4378C65.2601 42.0658 64.3796 42.4186 63.4615 42.4186H26.5385C25.6204 42.4186 24.7399 42.0658 24.0908 41.4378C23.4416 40.8097 23.0769 39.9579 23.0769 39.0698ZM23.0769 56.9302C23.0769 56.0421 23.4416 55.1903 24.0908 54.5623C24.7399 53.9342 25.6204 53.5814 26.5385 53.5814H49.6154C50.5334 53.5814 51.4139 53.9342 52.0631 54.5623C52.7122 55.1903 53.0769 56.0421 53.0769 56.9302C53.0769 57.8184 52.7122 58.6702 52.0631 59.2982C51.4139 59.9262 50.5334 60.2791 49.6154 60.2791H26.5385C25.6204 60.2791 24.7399 59.9262 24.0908 59.2982C23.4416 58.6702 23.0769 57.8184 23.0769 56.9302Z" fill="white"/>
</svg>
