<svg width="140" height="120" viewBox="0 0 140 120" fill="none" xmlns="http://www.w3.org/2000/svg">
<path d="M100.265 82.3211L89.7636 32.3922C89.6278 31.7393 89.3643 31.1196 88.9883 30.5688C88.6122 30.018 88.1311 29.547 87.5725 29.1827C87.0138 28.8184 86.3887 28.5681 85.7331 28.4461C85.0774 28.3241 84.4041 28.3329 83.7519 28.4719L68.9409 31.655C67.6308 31.9418 66.487 32.7344 65.7582 33.8602C65.0294 34.986 64.7745 36.354 65.0491 37.6667L75.5506 87.5956C75.7846 88.7347 76.4037 89.7586 77.3038 90.495C78.2038 91.2314 79.33 91.6354 80.4929 91.6393C80.8524 91.6388 81.2108 91.6006 81.5623 91.5254L96.3733 88.3423C97.685 88.0548 98.8299 87.2607 99.5588 86.133C100.288 85.0052 100.542 83.6351 100.265 82.3211ZM70.0009 36.6321V36.6036L84.8087 33.4395L85.8623 38.4609L71.0545 41.6471L70.0009 36.6321ZM72.0955 46.5894L86.9096 43.4095L87.9664 48.4403L73.1649 51.6234L72.0955 46.5894ZM74.1964 56.5783L89.0105 53.3952L93.2187 73.4048L78.4046 76.5878L74.1964 56.5783ZM95.3133 83.3937L80.5055 86.5578L79.4519 81.5364L94.2597 78.3502L95.3133 83.3653V83.3937ZM59.8759 30.8893H44.6884C43.3457 30.8893 42.058 31.4226 41.1086 32.372C40.1592 33.3215 39.6259 34.6091 39.6259 35.9518V86.5768C39.6259 87.9194 40.1592 89.2071 41.1086 90.1565C42.058 91.1059 43.3457 91.6393 44.6884 91.6393H59.8759C61.2185 91.6393 62.5062 91.1059 63.4556 90.1565C64.405 89.2071 64.9384 87.9194 64.9384 86.5768V35.9518C64.9384 34.6091 64.405 33.3215 63.4556 32.372C62.5062 31.4226 61.2185 30.8893 59.8759 30.8893ZM44.6884 35.9518H59.8759V41.0143H44.6884V35.9518ZM44.6884 46.0768H59.8759V76.4518H44.6884V46.0768ZM59.8759 86.5768H44.6884V81.5143H59.8759V86.5768Z" fill="#1B68DC"/>
</svg>
