<svg width="90" height="90" viewBox="0 0 90 90" fill="none" xmlns="http://www.w3.org/2000/svg">
<path d="M81 27.931H63C60.6138 27.9335 58.326 28.9152 56.6387 30.6607C54.9514 32.4062 54.0024 34.7729 54 37.2414V55.8621C54.0016 57.5077 54.6342 59.0855 55.7591 60.2492C56.884 61.4129 58.4092 62.0673 60 62.069V83.7931C60.0016 85.4388 60.6342 87.0166 61.7591 88.1802C62.884 89.3439 64.4092 89.9984 66 90H78C79.5908 89.9984 81.116 89.3439 82.2409 88.1802C83.3658 87.0166 83.9984 85.4388 84 83.7931V62.069C85.5908 62.0673 87.116 61.4129 88.2409 60.2492C89.3658 59.0855 89.9984 57.5077 90 55.8621V37.2414C89.9976 34.7729 89.0486 32.4062 87.3613 30.6607C85.674 28.9152 83.3862 27.9335 81 27.931ZM84 55.8621H78V83.7931H66V55.8621H60V37.2414C60 36.4183 60.3161 35.6289 60.8787 35.0469C61.4413 34.4649 62.2043 34.1379 63 34.1379H81C81.7956 34.1379 82.5587 34.4649 83.1213 35.0469C83.6839 35.6289 84 36.4183 84 37.2414V55.8621ZM60 12.4138C60 9.95858 60.7038 7.5585 62.0224 5.51706C63.3409 3.47563 65.2151 1.88452 67.4078 0.944949C69.6005 0.00537866 72.0133 -0.240456 74.3411 0.238533C76.6689 0.717522 78.8071 1.89982 80.4853 3.63592C82.1635 5.37202 83.3064 7.58395 83.7694 9.99199C84.2324 12.4 83.9948 14.896 83.0866 17.1644C82.1783 19.4327 80.6402 21.3714 78.6668 22.7355C76.6935 24.0995 74.3734 24.8276 72 24.8276C68.8184 24.8243 65.768 23.5154 63.5182 21.188C61.2685 18.8607 60.0032 15.7051 60 12.4138ZM66 12.4138C66 13.6414 66.3519 14.8414 67.0112 15.8622C67.6705 16.8829 68.6075 17.6784 69.7039 18.1482C70.8003 18.618 72.0067 18.7409 73.1705 18.5014C74.3344 18.2619 75.4035 17.6708 76.2426 16.8027C77.0818 15.9347 77.6532 14.8287 77.8847 13.6247C78.1162 12.4207 77.9974 11.1727 77.5433 10.0385C77.0891 8.90436 76.3201 7.93498 75.3334 7.25295C74.3467 6.57093 73.1867 6.2069 72 6.2069C70.4092 6.20855 68.884 6.86301 67.7591 8.02668C66.6342 9.19034 66.0016 10.7681 66 12.4138ZM42 46.5517V37.2414C41.9976 34.7729 41.0486 32.4062 39.3613 30.6607C37.674 28.9152 35.3862 27.9335 33 27.931H15C12.6138 27.9335 10.326 28.9152 8.63867 30.6607C6.95136 32.4062 6.00238 34.7729 6 37.2414V46.5517H0V52.7586H48V46.5517H42ZM12 37.2414C12 36.4183 12.3161 35.6289 12.8787 35.0469C13.4413 34.4649 14.2044 34.1379 15 34.1379H33C33.7957 34.1379 34.5587 34.4649 35.1213 35.0469C35.6839 35.6289 36 36.4183 36 37.2414V46.5517H12V37.2414ZM12 12.4138C12 9.95858 12.7038 7.5585 14.0224 5.51706C15.3409 3.47563 17.2151 1.88452 19.4078 0.944949C21.6005 0.00537866 24.0133 -0.240456 26.3411 0.238533C28.6689 0.717522 30.8071 1.89982 32.4853 3.63592C34.1635 5.37202 35.3064 7.58395 35.7694 9.99199C36.2324 12.4 35.9948 14.896 35.0866 17.1644C34.1783 19.4327 32.6402 21.3714 30.6668 22.7355C28.6935 24.0995 26.3734 24.8276 24 24.8276C20.8184 24.8243 17.768 23.5154 15.5182 21.188C13.2685 18.8607 12.0032 15.7051 12 12.4138ZM18 12.4138C18 13.6414 18.3519 14.8414 19.0112 15.8622C19.6705 16.8829 20.6075 17.6784 21.7039 18.1482C22.8003 18.618 24.0067 18.7409 25.1705 18.5014C26.3344 18.2619 27.4035 17.6708 28.2426 16.8027C29.0818 15.9347 29.6532 14.8287 29.8847 13.6247C30.1162 12.4207 29.9974 11.1727 29.5433 10.0385C29.0892 8.90436 28.3201 7.93498 27.3334 7.25295C26.3467 6.57093 25.1867 6.2069 24 6.2069C22.4092 6.20855 20.884 6.86301 19.7591 8.02668C18.6342 9.19034 18.0016 10.7681 18 12.4138Z" fill="white"/>
</svg>
