<svg width="140" height="120" viewBox="0 0 140 120" fill="none" xmlns="http://www.w3.org/2000/svg">
<path d="M67.3 30.3V22.2C67.3 21.4839 67.5845 20.7972 68.0908 20.2908C68.5972 19.7845 69.2839 19.5 70 19.5C70.7161 19.5 71.4028 19.7845 71.9092 20.2908C72.4155 20.7972 72.7 21.4839 72.7 22.2V30.3C72.7 31.0161 72.4155 31.7028 71.9092 32.2092C71.4028 32.7155 70.7161 33 70 33C69.2839 33 68.5972 32.7155 68.0908 32.2092C67.5845 31.7028 67.3 31.0161 67.3 30.3ZM91.6 60C91.6 64.2721 90.3332 68.4482 87.9597 72.0003C85.5863 75.5524 82.2128 78.3209 78.266 79.9558C74.3191 81.5907 69.976 82.0184 65.7861 81.185C61.5961 80.3515 57.7473 78.2943 54.7265 75.2735C51.7057 72.2527 49.6485 68.4039 48.815 64.214C47.9816 60.024 48.4094 55.6809 50.0442 51.734C51.6791 47.7872 54.4476 44.4137 57.9997 42.0403C61.5518 39.6668 65.7279 38.4 70 38.4C75.7268 38.4063 81.2172 40.684 85.2666 44.7334C89.316 48.7828 91.5937 54.2732 91.6 60ZM86.2 60C86.2 56.7959 85.2499 53.6638 83.4698 50.9998C81.6897 48.3357 79.1596 46.2593 76.1995 45.0332C73.2393 43.807 69.982 43.4862 66.8395 44.1113C63.697 44.7364 60.8105 46.2793 58.5449 48.5449C56.2793 50.8105 54.7364 53.697 54.1113 56.8395C53.4862 59.982 53.807 63.2393 55.0332 66.1995C56.2593 69.1596 58.3357 71.6897 60.9998 73.4698C63.6638 75.2499 66.7959 76.2 70 76.2C74.2951 76.1955 78.4131 74.4873 81.4502 71.4502C84.4873 68.4131 86.1955 64.2951 86.2 60ZM46.4898 40.3103C46.9964 40.8169 47.6835 41.1015 48.4 41.1015C49.1165 41.1015 49.8036 40.8169 50.3102 40.3102C50.8169 39.8036 51.1015 39.1165 51.1015 38.4C51.1015 37.6835 50.8169 36.9964 50.3103 36.4898L44.9103 31.0898C44.4036 30.5831 43.7165 30.2985 43 30.2985C42.2835 30.2985 41.5964 30.5831 41.0898 31.0898C40.5831 31.5964 40.2985 32.2835 40.2985 33C40.2985 33.7165 40.5831 34.4036 41.0898 34.9103L46.4898 40.3103ZM46.4898 79.6897L41.0898 85.0897C40.5831 85.5964 40.2985 86.2835 40.2985 87C40.2985 87.7165 40.5831 88.4036 41.0898 88.9103C41.5964 89.4169 42.2835 89.7015 43 89.7015C43.7165 89.7015 44.4036 89.4169 44.9103 88.9103L50.3103 83.5103C50.5611 83.2594 50.7601 82.9616 50.8959 82.6338C51.0316 82.3061 51.1015 81.9548 51.1015 81.6C51.1015 81.2452 51.0316 80.8939 50.8959 80.5662C50.7601 80.2384 50.5611 79.9406 50.3103 79.6897C50.0594 79.4389 49.7616 79.2399 49.4338 79.1041C49.1061 78.9684 48.7548 78.8985 48.4 78.8985C48.0452 78.8985 47.6939 78.9684 47.3662 79.1041C47.0384 79.2399 46.7406 79.4389 46.4898 79.6897ZM91.6 41.1C91.9547 41.1003 92.3059 41.0307 92.6337 40.8952C92.9615 40.7597 93.2593 40.5609 93.5103 40.3103L98.9103 34.9103C99.4169 34.4036 99.7015 33.7165 99.7015 33C99.7015 32.2835 99.4169 31.5964 98.9103 31.0898C98.4036 30.5831 97.7165 30.2985 97 30.2985C96.2835 30.2985 95.5964 30.5831 95.0897 31.0898L89.6897 36.4898C89.3117 36.8674 89.0542 37.3486 88.9499 37.8727C88.8455 38.3967 88.899 38.9399 89.1035 39.4335C89.3081 39.9272 89.6544 40.349 90.0988 40.6456C90.5433 40.9423 91.0657 41.1004 91.6 41.1ZM93.5103 79.6897C93.0036 79.1831 92.3165 78.8985 91.6 78.8985C90.8835 78.8985 90.1964 79.1831 89.6897 79.6897C89.1831 80.1964 88.8985 80.8835 88.8985 81.6C88.8985 82.3165 89.1831 83.0036 89.6897 83.5103L95.0897 88.9103C95.3406 89.1611 95.6384 89.3601 95.9662 89.4959C96.2939 89.6316 96.6452 89.7015 97 89.7015C97.3548 89.7015 97.7061 89.6316 98.0338 89.4959C98.3616 89.3601 98.6594 89.1611 98.9103 88.9103C99.1611 88.6594 99.3601 88.3616 99.4959 88.0338C99.6316 87.7061 99.7015 87.3548 99.7015 87C99.7015 86.6452 99.6316 86.2939 99.4959 85.9662C99.3601 85.6384 99.1611 85.3406 98.9103 85.0897L93.5103 79.6897ZM43 60C43 59.2839 42.7155 58.5972 42.2092 58.0908C41.7028 57.5845 41.0161 57.3 40.3 57.3H32.2C31.4839 57.3 30.7972 57.5845 30.2908 58.0908C29.7845 58.5972 29.5 59.2839 29.5 60C29.5 60.7161 29.7845 61.4028 30.2908 61.9092C30.7972 62.4155 31.4839 62.7 32.2 62.7H40.3C41.0161 62.7 41.7028 62.4155 42.2092 61.9092C42.7155 61.4028 43 60.7161 43 60ZM70 87C69.2839 87 68.5972 87.2845 68.0908 87.7908C67.5845 88.2972 67.3 88.9839 67.3 89.7V97.8C67.3 98.5161 67.5845 99.2028 68.0908 99.7092C68.5972 100.216 69.2839 100.5 70 100.5C70.7161 100.5 71.4028 100.216 71.9092 99.7092C72.4155 99.2028 72.7 98.5161 72.7 97.8V89.7C72.7 88.9839 72.4155 88.2972 71.9092 87.7908C71.4028 87.2845 70.7161 87 70 87ZM107.8 57.3H99.7C98.9839 57.3 98.2972 57.5845 97.7908 58.0908C97.2845 58.5972 97 59.2839 97 60C97 60.7161 97.2845 61.4028 97.7908 61.9092C98.2972 62.4155 98.9839 62.7 99.7 62.7H107.8C108.516 62.7 109.203 62.4155 109.709 61.9092C110.216 61.4028 110.5 60.7161 110.5 60C110.5 59.2839 110.216 58.5972 109.709 58.0908C109.203 57.5845 108.516 57.3 107.8 57.3Z" fill="#1B68DC"/>
</svg>
