<svg width="91" height="90" viewBox="0 0 91 90" fill="none" xmlns="http://www.w3.org/2000/svg">
<path d="M45.5 0C70.3535 0 90.5 20.1465 90.5 45C90.5 69.8535 70.3535 90 45.5 90C20.6465 90 0.5 69.8535 0.5 45C0.5 20.1465 20.6465 0 45.5 0ZM45.5 9C36.5439 9.00486 27.9112 12.3479 21.2877 18.3764C14.6642 24.4048 10.5257 32.6857 9.68029 41.6018C8.83488 50.5179 11.3433 59.429 16.7157 66.5949C22.0881 73.7607 29.9387 78.6667 38.7343 80.3548C47.5299 82.0428 56.6389 80.3917 64.2824 75.7238C71.9259 71.056 77.555 63.7066 80.0705 55.111C82.5859 46.5154 81.807 37.2908 77.8859 29.2386C73.9648 21.1865 67.183 14.8851 58.865 11.565C59.2618 14.3005 58.8094 17.0918 57.5688 19.5619C56.3283 22.0319 54.3595 24.0617 51.9283 25.3769C49.4972 26.6921 46.7209 27.2293 43.9746 26.916C41.2284 26.6027 38.6444 25.454 36.572 23.625C35.7113 22.8684 35.1717 21.812 35.0631 20.6712C34.9546 19.5305 35.2854 18.3912 35.9881 17.486C36.6907 16.5807 37.7122 15.9776 38.8442 15.7997C39.9763 15.6218 41.1336 15.8824 42.08 16.5285L42.5255 16.875C43.0716 17.3567 43.7265 17.6986 44.4339 17.8714C45.1413 18.0442 45.88 18.0428 46.5867 17.8673C47.2934 17.6918 47.947 17.3473 48.4913 16.8636C49.0356 16.3799 49.4544 15.7713 49.7117 15.0901C49.969 14.4089 50.0571 13.6754 49.9686 12.9526C49.88 12.2298 49.6173 11.5393 49.2031 10.9404C48.7889 10.3415 48.2356 9.85204 47.5906 9.51406C46.9456 9.17608 46.2282 8.99968 45.5 9ZM57.38 59.544C58.2963 60.308 58.8717 61.4046 58.9797 62.5928C59.0877 63.7809 58.7195 64.9633 57.956 65.88C54.932 69.5115 50.558 72 45.5 72C40.442 72 36.068 69.5115 33.044 65.88C32.3138 64.9597 31.9724 63.7904 32.0928 62.6218C32.2132 61.4532 32.7858 60.378 33.6883 59.626C34.5908 58.8739 35.7516 58.5046 36.9227 58.5969C38.0939 58.6892 39.1825 59.2358 39.956 60.12C41.5715 62.055 43.547 63 45.5 63C47.453 63 49.4285 62.055 51.044 60.12C51.808 59.2037 52.9046 58.6283 54.0928 58.5203C55.2809 58.4123 56.4633 58.7805 57.38 59.544ZM29.75 36C31.5402 36 33.2571 36.7112 34.523 37.977C35.7888 39.2429 36.5 40.9598 36.5 42.75C36.5 44.5402 35.7888 46.2571 34.523 47.523C33.2571 48.7888 31.5402 49.5 29.75 49.5C27.9598 49.5 26.2429 48.7888 24.977 47.523C23.7112 46.2571 23 44.5402 23 42.75C23 40.9598 23.7112 39.2429 24.977 37.977C26.2429 36.7112 27.9598 36 29.75 36ZM61.25 36C63.0402 36 64.7571 36.7112 66.023 37.977C67.2888 39.2429 68 40.9598 68 42.75C68 44.5402 67.2888 46.2571 66.023 47.523C64.7571 48.7888 63.0402 49.5 61.25 49.5C59.4598 49.5 57.7429 48.7888 56.477 47.523C55.2112 46.2571 54.5 44.5402 54.5 42.75C54.5 40.9598 55.2112 39.2429 56.477 37.977C57.7429 36.7112 59.4598 36 61.25 36Z" fill="white"/>
</svg>
