<svg width="140" height="120" viewBox="0 0 140 120" fill="none" xmlns="http://www.w3.org/2000/svg">
<path d="M34.7576 50.2083C33.8176 50.2083 32.9952 50.5608 32.4468 51.1875C31.8985 51.775 31.6635 52.6367 31.781 53.5767L33.7393 65.2875C34.0526 67.8333 36.3243 69.7917 38.6743 69.7917H50.4243C52.931 69.7917 55.751 67.5983 56.2993 65.17L60.451 52.6758C60.6077 52.1667 60.4902 51.4225 60.216 50.9525C59.7852 50.4825 59.1193 50.2083 58.2577 50.2083H34.7576ZM50.4243 77.625H38.6743C32.3293 77.625 26.7676 72.69 25.9843 66.4233L24.026 54.7125C23.5951 51.3833 24.5352 48.25 26.5718 45.9783C28.6085 43.7067 31.5851 42.375 34.7576 42.375H58.2577C61.5085 42.375 64.446 43.7458 66.326 46.135C66.7568 46.7225 67.1485 47.3492 67.4618 48.0542C69.146 47.7017 70.8693 47.7017 72.5143 48.0542C72.8277 47.3492 73.2193 46.7225 73.6893 46.135C75.5301 43.7458 78.4677 42.375 81.7577 42.375H105.258C108.43 42.375 111.407 43.7067 113.443 45.9783C115.441 48.25 116.381 51.3833 115.989 54.5558L113.992 66.58C113.248 72.69 107.647 77.625 101.341 77.625H89.591C83.481 77.625 77.5277 72.9642 76.0393 67.05L72.5143 56.4358C71.026 55.3392 68.9502 55.3392 67.4618 56.4358L63.8585 67.3242C62.4485 73.0033 56.5343 77.625 50.4243 77.625ZM81.7577 50.2083C80.896 50.2083 80.2302 50.4825 79.7993 50.9525C79.486 51.4225 79.4076 52.1667 79.6035 52.95L83.5593 64.8958C84.2643 67.5983 87.0843 69.7917 89.591 69.7917H101.341C103.652 69.7917 105.963 67.8333 106.237 65.4442L108.234 53.42C108.352 52.6367 108.117 51.775 107.568 51.1875C107.276 50.8677 106.919 50.6147 106.52 50.4458C106.121 50.2768 105.691 50.1958 105.258 50.2083H81.7577Z" fill="#1B68DC"/>
</svg>
