<svg width="50" height="50" viewBox="0 0 50 50" fill="none" xmlns="http://www.w3.org/2000/svg">
<path d="M25 0.833496C11.66 0.833496 0.833344 11.6602 0.833344 25.0002C0.833344 38.3402 11.66 49.1668 25 49.1668C38.34 49.1668 49.1667 38.3402 49.1667 25.0002C49.1667 11.6602 38.34 0.833496 25 0.833496ZM36.2133 17.2668C35.8508 21.0852 34.28 30.3652 33.4825 34.6427C33.1442 36.4552 32.4675 37.0593 31.8392 37.1318C30.4375 37.2527 29.3742 36.2135 28.0208 35.3193C25.8942 33.9177 24.6858 33.0477 22.6317 31.6943C20.2392 30.1235 21.7858 29.2535 23.1633 27.8518C23.5258 27.4893 29.7125 21.8585 29.8333 21.351C29.8501 21.2741 29.8479 21.1943 29.8268 21.1185C29.8058 21.0427 29.7665 20.9732 29.7125 20.916C29.5675 20.7952 29.3742 20.8435 29.205 20.8677C28.9875 20.916 25.6042 23.1635 19.0067 27.6102C18.04 28.2627 17.17 28.601 16.3967 28.5768C15.5267 28.5527 13.8833 28.0935 12.6508 27.6827C11.1283 27.1993 9.94418 26.9335 10.0408 26.0877C10.0892 25.6527 10.6933 25.2177 11.8292 24.7585C18.8858 21.6893 23.5742 19.6593 25.9183 18.6927C32.6367 15.8893 34.0142 15.406 34.9325 15.406C35.1258 15.406 35.585 15.4543 35.875 15.696C36.1167 15.8893 36.1892 16.1552 36.2133 16.3485C36.1892 16.4935 36.2375 16.9285 36.2133 17.2668Z" fill="white"/>
</svg>
