<svg width="140" height="120" viewBox="0 0 140 120" fill="none" xmlns="http://www.w3.org/2000/svg">
<path d="M99.6664 49.6082C103.614 45.6607 101.814 41.0499 99.6664 38.8077L90.1917 29.3335C86.2123 25.3859 81.6329 27.186 79.3906 29.3335L74.0216 34.7338H65.8418C59.8411 34.7338 56.3671 37.8918 54.5985 41.5236L40.576 55.5454V68.1776L38.3336 70.3883C34.3858 74.3674 36.186 78.9466 38.3336 81.1889L47.8083 90.663C49.5137 92.3684 51.3455 93 53.0825 93C55.3249 93 57.3777 91.8947 58.6094 90.663L67.1366 82.1047H78.4747C83.8437 82.1047 86.5597 78.7571 87.5388 75.4728C91.1076 74.5253 93.0657 71.8094 93.8552 69.1566C98.7505 67.8934 100.582 63.2511 100.582 59.9983V50.5241H98.7189L99.6664 49.6082ZM94.2658 59.9983C94.2658 61.4194 93.6657 63.1563 91.1076 63.1563H87.9494V66.3144C87.9494 67.7355 87.3493 69.4725 84.7911 69.4725H81.6329V72.6305C81.6329 74.0516 81.0328 75.7886 78.4747 75.7886H64.5469L54.1879 86.147C53.2089 87.0628 52.6404 86.526 52.293 86.1786L42.8499 76.7676C41.934 75.7886 42.4709 75.2201 42.8183 74.8727L46.8924 70.7673V58.135L53.2089 51.8189V56.8402C53.2089 60.6615 55.7355 66.3144 62.6835 66.3144C69.6316 66.3144 72.1582 60.6615 72.1582 56.8402H94.2658V59.9983ZM95.1817 45.1238L89.8127 50.5241H65.8418V56.8402C65.8418 58.2613 65.2417 59.9983 62.6835 59.9983C60.1254 59.9983 59.5253 58.2613 59.5253 56.8402V47.366C59.5253 45.9133 60.0622 41.0499 65.8418 41.0499H76.6113L83.8121 33.8495C84.7911 32.9337 85.3596 33.4706 85.707 33.8179L95.1501 43.229C96.066 44.208 95.5291 44.7764 95.1817 45.1238Z" fill="#1B68DC"/>
</svg>
