<svg width="140" height="120" viewBox="0 0 140 120" fill="none" xmlns="http://www.w3.org/2000/svg">
<path fill-rule="evenodd" clip-rule="evenodd" d="M97.8214 34H73.8571L72.3321 34.6582L69.5 37.4667L66.6679 34.6582L65.1429 34H41.1786L39 36.1941V80.0759L41.1786 82.27H64.2279L67.975 86H71.025L74.7721 82.27H97.8214L100 80.0759V36.1941L97.8214 34ZM67.3214 79.2861L66.5371 78.5401L65.1429 77.8819H43.3571V38.3882H64.2279L67.4521 41.6354L67.3214 79.2861ZM95.6429 77.8819H73.8571L72.3321 78.5401L71.7221 79.1105V41.4599L74.7721 38.3882H95.6429V77.8819ZM60.7857 47.1646H47.7143V51.5527H60.7857V47.1646ZM60.7857 64.7173H47.7143V69.1055H60.7857V64.7173ZM47.7143 55.9409H60.7857V60.3291H47.7143V55.9409ZM91.2857 47.1646H78.2143V51.5527H91.2857V47.1646ZM78.2143 55.9409H91.2857V60.3291H78.2143V55.9409ZM78.2143 64.7173H91.2857V69.1055H78.2143V64.7173Z" fill="#1B68DC"/>
</svg>
