<svg width="46" height="46" viewBox="0 0 46 46" fill="none" xmlns="http://www.w3.org/2000/svg">
<path d="M3.65 3.65C0.500001 6.83 0.5 11.915 0.5 22.1V23.9C0.5 34.07 0.500001 39.155 3.65 42.35C6.83 45.5 11.915 45.5 22.1 45.5H23.9C34.07 45.5 39.155 45.5 42.35 42.35C45.5 39.17 45.5 34.085 45.5 23.9V22.1C45.5 11.93 45.5 6.845 42.35 3.65C39.17 0.500001 34.085 0.5 23.9 0.5H22.1C11.93 0.5 6.845 0.500001 3.65 3.65ZM8.09 14.195H13.25C13.415 22.775 17.195 26.405 20.195 27.155V14.195H25.04V21.59C27.995 21.275 31.115 17.9 32.165 14.18H36.995C36.6013 16.1057 35.8147 17.9295 34.6842 19.5374C33.5538 21.1453 32.1038 22.5028 30.425 23.525C32.2986 24.4572 33.9532 25.7761 35.2796 27.3947C36.606 29.0133 37.5741 30.8948 38.12 32.915H32.795C31.655 29.36 28.805 26.6 25.04 26.225V32.915H24.44C14.18 32.915 8.33 25.895 8.09 14.195Z" fill="white"/>
</svg>
