<svg width="91" height="92" viewBox="0 0 91 92" fill="none" xmlns="http://www.w3.org/2000/svg">
<path d="M45.5 4.35467C22.5189 4.35467 3.85449 23.0186 3.85449 46C3.85467 68.981 22.5189 87.6454 45.5 87.6454C68.481 87.6454 87.1454 68.9812 87.1454 46C87.1454 23.0189 68.481 4.35467 45.5 4.35467ZM9.69182 5.95428C8.6298 5.95428 7.61128 6.37617 6.86032 7.12713C6.10935 7.87809 5.68747 8.89661 5.68747 9.95863C5.68742 10.4845 5.79096 11.0053 5.99218 11.4911C6.19339 11.977 6.48835 12.4185 6.86019 12.7904C7.23203 13.1622 7.67349 13.4572 8.15934 13.6585C8.64519 13.8598 9.16593 13.9633 9.69182 13.9633C10.2177 13.9634 10.7385 13.8599 11.2243 13.6586C11.7102 13.4574 12.1517 13.1625 12.5236 12.7906C12.8954 12.4188 13.1904 11.9773 13.3917 11.4915C13.5929 11.0056 13.6965 10.4849 13.6965 9.95899C13.6966 9.4331 13.593 8.91235 13.3918 8.42648C13.1906 7.94061 12.8957 7.49913 12.5238 7.12725C12.152 6.75538 11.7105 6.46039 11.2247 6.25913C10.7388 6.05787 10.2181 5.95428 9.69218 5.95428H9.69182ZM81.5409 5.95428C80.4789 5.95428 79.4604 6.37617 78.7094 7.12713C77.9585 7.87809 77.5366 8.89661 77.5366 9.95863C77.5365 10.4845 77.6401 11.0053 77.8413 11.4911C78.0425 11.977 78.3375 12.4185 78.7093 12.7904C79.0812 13.1622 79.5226 13.4572 80.0085 13.6585C80.4943 13.8598 81.0151 13.9633 81.5409 13.9633C82.0668 13.9634 82.5876 13.8599 83.0735 13.6587C83.5594 13.4575 84.0009 13.1625 84.3728 12.7907C84.7447 12.4188 85.0397 11.9774 85.241 11.4915C85.4422 11.0056 85.5458 10.4849 85.5458 9.95899C85.5459 9.43307 85.4423 8.91229 85.2411 8.4264C85.0398 7.9405 84.7449 7.49901 84.373 7.12713C84.0011 6.75525 83.5596 6.46026 83.0737 6.25902C82.5878 6.05779 82.067 5.95423 81.5411 5.95428H81.5409ZM45.5 7.55389C66.7522 7.55389 83.9462 24.7479 83.9462 46C83.9462 67.2522 66.7522 84.4462 45.5 84.4462C24.2477 84.4462 7.05371 67.252 7.05371 46C7.05371 24.7479 24.2479 7.55389 45.5 7.55389ZM53.2641 11.541C53.1779 11.5392 53.0944 11.5396 53.0135 11.5415C51.9387 11.5682 51.3375 11.939 51.4948 12.7391C53.3565 20.2386 53.5831 27.9869 50.5906 34.834C52.8464 35.8701 54.7386 37.5605 56.0215 39.6856C61.1715 35.4161 66.3503 29.8537 69.6391 25.5049C74.2851 19.3617 58.6911 11.6576 53.2638 11.5415L53.2641 11.541ZM35.7967 12.3216C28.682 12.2242 16.1118 22.9501 19.6887 24.1738C27.118 26.312 33.9447 29.9921 38.3782 36.0124C40.3357 34.6113 42.7177 33.7706 45.2888 33.7267C44.1662 27.1317 41.938 19.8652 39.8164 14.8424C39.0695 13.0745 37.6103 12.3463 35.7967 12.3216ZM77.8867 34.3098C77.6921 34.3134 77.4961 34.3957 77.3006 34.5663C71.7389 39.9268 65.1442 43.996 57.7213 44.8301C57.7589 45.2189 57.778 45.6093 57.7786 46C57.7799 48.0865 57.2455 50.1385 56.2266 51.9594C62.4995 54.2849 69.9068 55.9886 75.3181 56.6626C84.1812 57.7663 81.2532 34.2499 77.8869 34.3098H77.8867ZM15.0335 35.3016C6.47412 35.3917 10.1982 60.4819 13.6891 57.4354C19.2534 52.0723 25.8514 48.0013 33.2786 47.1702C33.0385 44.6987 33.559 42.2129 34.7707 40.0455C28.4958 37.7184 21.0846 36.0133 15.6713 35.3391C15.4597 35.3122 15.2466 35.2997 15.0333 35.3018L15.0335 35.3016ZM45.5 36.9208C43.4727 36.9208 41.6063 37.5777 40.0992 38.6906C40.4563 39.3321 40.7855 39.9888 41.0856 40.6589C42.2876 39.6621 43.8275 39.061 45.5 39.061C45.65 39.061 45.7986 39.0673 45.9461 39.077C45.8992 38.3785 45.8338 37.661 45.7492 36.9265C45.6661 36.9247 45.5835 36.9204 45.5 36.9204V36.9208ZM49.1293 37.6708C48.7539 38.2983 48.3516 38.9092 47.9234 39.5018C49.576 40.1239 50.9338 41.3609 51.7155 42.9303C52.3179 42.526 52.9106 42.1073 53.4929 41.6744C52.5279 39.8888 50.9913 38.4788 49.1295 37.6706L49.1293 37.6708ZM37.7579 41.2411C36.9101 42.623 36.4206 44.2516 36.4206 46C36.4206 46.3448 36.4412 46.6842 36.4782 47.0184C37.198 47.0301 37.9249 47.0722 38.6586 47.1476C38.594 46.7685 38.5613 46.3846 38.5609 46C38.5609 44.5804 38.9945 43.2565 39.735 42.1533C39.0833 41.8335 38.424 41.5294 37.7579 41.2411ZM45.5 42.2604C43.4155 42.2604 41.7604 43.9155 41.7604 46C41.7604 48.0844 43.4155 49.7395 45.5 49.7395C47.5844 49.7395 49.2395 48.0844 49.2395 46C49.2395 43.9155 47.5844 42.2604 45.5 42.2604ZM52.3417 44.8554C52.4044 45.2282 52.4389 45.6102 52.4389 46C52.4389 47.4218 52.0042 48.7477 51.2616 49.8518C51.9133 50.1716 52.5726 50.4758 53.2389 50.7641C54.0893 49.381 54.5797 47.7507 54.5797 46C54.5797 45.6561 54.5593 45.3175 54.5225 44.9833C53.8027 44.9723 53.0757 44.9305 52.342 44.8554H52.3417ZM39.2821 49.0652C38.6798 49.4695 38.0871 49.8882 37.5048 50.3209C38.4682 52.106 40.0028 53.5163 41.8628 54.3259C42.2384 53.6987 42.6408 53.0879 43.0689 52.4953C41.4183 51.8714 40.062 50.634 39.2821 49.0654V49.0652ZM49.9058 51.3484C48.7047 52.3406 47.1682 52.9391 45.4998 52.9391C45.346 52.9391 45.1941 52.932 45.0427 52.9218C45.0896 53.6203 45.155 54.338 45.2394 55.0728C45.3261 55.0751 45.4125 55.0793 45.4998 55.0793C47.5233 55.0793 49.3863 54.4246 50.8919 53.3155C50.5347 52.6744 50.2056 52.0181 49.9055 51.3484H49.9058ZM34.9752 52.3095C29.8224 56.5801 24.64 62.1466 21.3494 66.4977C15.6504 74.0337 40.4086 83.9182 39.4943 79.2626C37.6317 71.7615 37.4059 64.0112 40.4008 57.1626C38.1469 56.1251 36.2567 54.4343 34.9754 52.3095H34.9752ZM52.614 55.9934C50.6553 57.3931 48.2719 58.2318 45.6997 58.2734C46.8223 64.8691 49.0507 72.1362 51.1727 77.1595C54.8493 85.8631 75.7889 69.364 71.2997 67.8284C63.8722 65.6908 57.0477 62.0112 52.614 55.9934ZM9.38488 78.0366C8.85899 78.0365 8.33824 78.1401 7.85237 78.3413C7.36649 78.5425 6.92501 78.8375 6.55314 79.2093C6.18126 79.5812 5.88627 80.0226 5.68501 80.5085C5.48375 80.9943 5.38016 81.5151 5.38016 82.0409C5.38009 82.5669 5.48364 83.0877 5.68488 83.5736C5.88612 84.0596 6.18111 84.5011 6.55301 84.873C6.92491 85.2449 7.36644 85.5399 7.85237 85.7411C8.33829 85.9424 8.8591 86.0459 9.38505 86.0458C9.91094 86.0458 10.4317 85.9422 10.9175 85.741C11.4034 85.5397 11.8448 85.2447 12.2167 84.8729C12.5885 84.501 12.8835 84.0595 13.0847 83.5736C13.2859 83.0878 13.3895 82.567 13.3894 82.0411C13.3894 80.9791 12.9675 79.9606 12.2166 79.2096C11.4656 78.4586 10.4471 78.0368 9.38505 78.0368L9.38488 78.0366ZM81.5728 78.0366C81.0469 78.0365 80.5261 78.1401 80.0402 78.3413C79.5544 78.5425 79.1129 78.8375 78.741 79.2093C78.3691 79.5812 78.0742 80.0226 77.8729 80.5085C77.6716 80.9943 77.568 81.5151 77.568 82.0409C77.568 82.5668 77.6715 83.0876 77.8727 83.5735C78.0739 84.0594 78.3689 84.5009 78.7407 84.8728C79.1125 85.2447 79.554 85.5397 80.0399 85.741C80.5257 85.9422 81.0465 86.0458 81.5724 86.0458C82.0983 86.0459 82.6191 85.9423 83.105 85.7411C83.5909 85.5398 84.0324 85.2449 84.4043 84.873C84.7761 84.5011 85.0711 84.0596 85.2724 83.5737C85.4736 83.0878 85.5772 82.567 85.5771 82.0411C85.5771 80.9791 85.1552 79.9606 84.4043 79.2096C83.6533 78.4586 82.6348 78.0368 81.5728 78.0368V78.0366Z" fill="white"/>
</svg>
